<?xml version="1.0" encoding="utf-8"?>
<!-- Generator: Adobe Illustrator 16.0.0, SVG Export Plug-In . SVG Version: 6.00 Build 0)  -->
<!DOCTYPE svg PUBLIC "-//W3C//DTD SVG 1.1//EN" "http://www.w3.org/Graphics/SVG/1.1/DTD/svg11.dtd">
<svg version="1.1" id="Ebene_1" xmlns="http://www.w3.org/2000/svg" xmlns:xlink="http://www.w3.org/1999/xlink" x="0px" y="0px"
	 width="64px" height="64px" viewBox="0 0 64 64" enable-background="new 0 0 64 64" xml:space="preserve">
<g>
	<path d="M32,15C11.169,15,0.769,30.242,0.336,30.891c-0.448,0.672-0.448,1.547,0,2.219C0.769,33.758,11.169,49,32,49
		s31.231-15.242,31.664-15.891c0.448-0.672,0.448-1.547,0-2.219C63.231,30.242,52.831,15,32,15z M32,45
		C16.493,45,7.234,35.322,4.512,31.996C7.225,28.663,16.436,19,32,19c15.507,0,24.766,9.678,27.488,13.004
		C56.775,35.337,47.564,45,32,45z"/>
	<path d="M32,23c-4.963,0-9,4.038-9,9s4.037,9,9,9s9-4.038,9-9S36.963,23,32,23z M32,37c-2.757,0-5-2.243-5-5s2.243-5,5-5
		s5,2.243,5,5S34.757,37,32,37z"/>
</g>
</svg>
